<svg width="663" height="326" viewBox="0 0 663 326" fill="none" xmlns="http://www.w3.org/2000/svg">
<g filter="url(#filter0_d_2_533)">
<rect x="36" y="32" width="591" height="254" fill="url(#paint0_linear_2_533)" shape-rendering="crispEdges"/>
<path d="M100 152.5C88.9543 152.5 80 143.546 80 132.5C80 121.454 88.9543 112.5 100 112.5C111.046 112.5 120 121.454 120 132.5C120 143.546 111.046 152.5 100 152.5ZM94 126.5V138.5H98V126.5H94ZM102 126.5V138.5H106V126.5H102Z" fill="#624AF3"/>
<g clip-path="url(#clip0_2_533)">
<mask id="mask0_2_533" style="mask-type:alpha" maskUnits="userSpaceOnUse" x="64" y="89" width="452" height="87">
<path d="M501.752 126.747C497.405 126.747 496.123 130.834 489.317 130.791C468.63 130.661 469.489 120.097 463.63 120.097C458.837 120.097 460.654 126.756 442.717 130.972C435.618 132.64 426.763 132.572 418.903 121.571C409.766 108.781 411.267 129.088 397.403 129.088C388.222 129.088 389.006 119.133 385.068 105.689C382.934 98.408 383.049 127.744 368.141 128.528C356.339 129.148 355.691 103.808 352.413 110.154C346.25 122.082 347.645 128.878 338.464 128.878C324.6 128.878 326.97 108.57 317.833 121.36C309.973 132.361 300.212 132.513 293.15 130.762C278.87 127.22 278.275 110.669 268.632 121.59C261.853 129.267 254.968 130.581 246.55 130.581C239.744 130.581 238.462 126.537 234.115 126.537C230.41 126.537 226.786 131.589 220.172 131.589L72.2971 131.284V132.276L220.172 132.581C226.786 132.581 230.41 137.633 234.115 137.633C238.462 137.633 239.744 133.589 246.55 133.589C254.968 133.589 261.853 134.902 268.632 142.58C278.275 153.5 278.87 136.95 293.15 133.408C300.212 131.656 309.973 131.808 317.833 142.809C326.97 155.599 324.6 135.292 338.464 135.292C347.645 135.292 345.381 141.601 351.544 154.015C354.884 160.745 354.279 135.74 366.798 135.822C381.021 135.915 382.733 173.608 384.755 166.702C388.508 153.886 388.222 135.502 397.403 135.502C411.267 135.502 409.766 155.81 418.903 143.02C426.763 132.019 435.586 132.027 442.717 133.618C461.233 137.75 459.039 144.522 463.952 144.522C469.272 144.522 469.924 133.38 489.317 133.799C496.12 133.946 497.405 137.843 501.752 137.843C505.457 137.843 509.081 132.791 515.695 132.791V131.799C509.081 131.799 505.457 126.747 501.752 126.747Z" fill="white"/>
<path d="M471.796 130.628C478.602 130.628 479.883 126.706 484.23 126.706C487.935 126.706 492.16 131.418 514.901 131.658V132.62C494.043 132.359 487.935 137.466 484.23 137.466C479.883 137.466 478.602 133.545 471.796 133.545C463.378 133.545 456.493 134.818 449.713 142.264C440.071 152.854 440.248 133.32 425.196 133.369C402.501 133.444 400.184 152.739 395.693 152.739C392.292 152.739 392.185 134.416 383.898 136.194C375.465 138.003 372.541 181.319 369.747 174.284C365.014 162.368 363.578 134.992 354.397 134.992C340.533 134.992 342.904 154.686 333.766 142.282C325.907 131.614 316.146 131.467 309.083 133.165C294.803 136.6 294.208 152.65 284.566 142.06C277.786 134.614 270.901 133.341 262.483 133.341C253.746 133.341 252.657 136.002 248.31 136.008C241.869 136.017 228.238 132.965 202.85 132.415H64.5544C64.2888 132.415 64.0735 132.2 64.0735 131.934C64.0735 131.669 64.2888 131.454 64.5544 131.454H202.85C225.921 131.454 242.014 127.655 248.31 127.756C252.656 127.826 252.732 130.424 262.483 130.424C270.901 130.424 277.786 129.15 284.566 121.704C294.208 111.114 294.803 127.164 309.083 130.599C316.146 132.298 325.907 132.15 333.766 121.482C342.904 109.078 340.533 128.772 354.397 128.772C363.578 128.772 365.064 102.038 369.747 90.4452C372.362 83.9706 376.484 126.506 384.58 127.462C393.306 128.493 392.65 110.305 395.838 110.305C400.908 110.305 399.749 130.43 425.196 130.803C440.245 131.023 440.071 111.318 449.713 121.908C456.493 129.354 463.378 130.628 471.796 130.628Z" fill="white"/>
</mask>
<g mask="url(#mask0_2_533)">
<path opacity="0.65" d="M220.171 131.741H220.172C223.52 131.741 226.108 130.461 228.31 129.195C228.63 129.011 228.94 128.828 229.243 128.65C229.989 128.211 230.69 127.798 231.371 127.463C232.327 126.994 233.223 126.689 234.115 126.689C236.002 126.689 237.291 127.465 238.768 128.352C238.953 128.464 239.141 128.577 239.333 128.69C241.06 129.709 243.11 130.733 246.55 130.733C250.765 130.733 254.611 130.405 258.256 129.108C261.904 127.81 265.341 125.547 268.746 121.69C271.151 118.967 272.954 118.002 274.516 118.07C276.084 118.138 277.471 119.248 279.043 120.859C279.496 121.323 279.963 121.827 280.451 122.354C283.328 125.459 286.964 129.384 293.113 130.909C296.66 131.789 300.894 132.193 305.233 130.99C309.575 129.786 314.009 126.975 317.957 121.449C319.096 119.855 320.048 118.786 320.869 118.13C321.69 117.474 322.363 117.243 322.949 117.291C323.536 117.339 324.072 117.671 324.612 118.225C325.151 118.778 325.678 119.536 326.249 120.406C326.38 120.607 326.514 120.812 326.65 121.023C328.873 124.449 331.844 129.03 338.464 129.03C340.777 129.03 342.444 128.602 343.733 127.757C345.022 126.912 345.916 125.663 346.707 124.056C347.337 122.775 347.907 121.255 348.558 119.518C348.721 119.081 348.89 118.63 349.067 118.166C349.945 115.854 351.011 113.199 352.548 110.224C352.749 109.834 352.933 109.581 353.1 109.437C353.262 109.296 353.394 109.268 353.511 109.295C353.638 109.326 353.785 109.432 353.951 109.641C354.114 109.847 354.282 110.137 354.456 110.501C354.805 111.229 355.168 112.227 355.574 113.393C355.665 113.652 355.757 113.919 355.852 114.193C356.181 115.147 356.54 116.184 356.938 117.247C357.963 119.982 359.259 122.913 361.047 125.122C362.838 127.335 365.134 128.838 368.149 128.68C371.933 128.481 374.758 126.468 376.896 123.698C379.031 120.931 380.487 117.398 381.54 114.131C382.066 112.496 382.493 110.926 382.853 109.548C382.945 109.194 383.033 108.854 383.117 108.528C383.36 107.583 383.572 106.764 383.765 106.12C383.895 105.687 384.015 105.339 384.129 105.089C384.186 104.964 384.24 104.868 384.29 104.798C384.341 104.727 384.38 104.697 384.403 104.686C384.417 104.679 384.425 104.679 384.441 104.688C384.466 104.701 384.508 104.737 384.562 104.82C384.669 104.985 384.789 105.279 384.921 105.732C385.886 109.024 386.567 112.107 387.182 114.89L387.217 115.05C387.84 117.871 388.4 120.385 389.126 122.48C389.851 124.574 390.748 126.267 392.055 127.436C393.367 128.609 395.078 129.24 397.403 129.24C403.946 129.24 407.115 124.765 409.529 121.353C409.707 121.103 409.88 120.858 410.049 120.622C410.675 119.752 411.255 118.994 411.845 118.44C412.434 117.886 413.019 117.55 413.651 117.501C414.28 117.453 414.989 117.687 415.831 118.342C416.675 118.998 417.641 120.066 418.779 121.659C422.726 127.183 426.932 129.974 431.053 131.169C435.172 132.362 439.19 131.957 442.752 131.12C451.741 129.007 455.796 126.278 458.205 124.065C458.806 123.514 459.303 122.996 459.746 122.531L459.798 122.477C460.221 122.033 460.592 121.644 460.963 121.317C461.727 120.645 462.478 120.249 463.63 120.249C465.039 120.249 466.048 120.88 467.103 121.861C467.517 122.247 467.935 122.683 468.386 123.153C468.51 123.284 468.638 123.417 468.768 123.552C469.369 124.174 470.033 124.842 470.814 125.511C473.949 128.195 478.942 130.878 489.316 130.944C492.757 130.965 494.807 129.94 496.534 128.916C496.731 128.8 496.924 128.683 497.113 128.569C498.584 127.679 499.871 126.9 501.752 126.9C502.644 126.9 503.541 127.204 504.496 127.674C505.178 128.008 505.878 128.421 506.624 128.86C506.927 129.039 507.237 129.222 507.557 129.405C509.725 130.653 512.268 131.913 515.543 131.951V132.64C512.268 132.678 509.725 133.938 507.557 135.185C507.237 135.369 506.927 135.552 506.624 135.73C505.878 136.169 505.178 136.582 504.496 136.917C503.541 137.386 502.644 137.691 501.752 137.691C499.844 137.691 498.545 136.927 497.049 136.047C496.88 135.947 496.708 135.846 496.532 135.744C494.805 134.745 492.758 133.721 489.321 133.647C479.589 133.437 474.541 136.129 471.259 138.887C470.441 139.575 469.734 140.265 469.094 140.912C468.92 141.087 468.752 141.258 468.588 141.426C468.145 141.878 467.732 142.3 467.328 142.676C466.223 143.708 465.221 144.37 463.952 144.37C462.77 144.37 462.02 143.967 461.267 143.286C460.911 142.965 460.557 142.584 460.154 142.151L460.068 142.058C459.63 141.588 459.138 141.064 458.539 140.508C456.135 138.276 452.029 135.54 442.751 133.47C439.173 132.672 435.156 132.267 431.041 133.451C426.924 134.636 422.726 137.407 418.779 142.931C417.641 144.525 416.675 145.593 415.831 146.248C414.989 146.903 414.28 147.138 413.651 147.089C413.019 147.04 412.434 146.704 411.845 146.151C411.255 145.597 410.675 144.838 410.049 143.968C409.88 143.732 409.707 143.487 409.529 143.237C407.115 139.826 403.946 135.35 397.403 135.35C395.045 135.35 393.3 136.535 391.956 138.489C390.617 140.436 389.67 143.156 388.896 146.259C388.224 148.956 387.68 151.955 387.126 155.005C387.043 155.467 386.959 155.929 386.874 156.393C386.229 159.919 385.545 163.463 384.609 166.659C384.547 166.87 384.487 167.034 384.429 167.155C384.369 167.279 384.318 167.345 384.28 167.376C384.251 167.4 384.241 167.395 384.235 167.392C384.213 167.385 384.17 167.356 384.11 167.272C383.99 167.107 383.857 166.808 383.71 166.375C383.564 165.948 383.41 165.405 383.244 164.765C383.014 163.883 382.762 162.817 382.479 161.623C381.945 159.365 381.302 156.648 380.498 153.845C379.268 149.555 377.652 145.033 375.448 141.575C373.245 138.12 370.432 135.693 366.799 135.669C363.61 135.649 361.26 137.229 359.484 139.482C357.711 141.731 356.502 144.659 355.585 147.362C355.203 148.489 354.871 149.579 354.57 150.567C354.509 150.766 354.45 150.96 354.392 151.15C354.044 152.287 353.737 153.25 353.436 153.939C353.286 154.284 353.141 154.551 352.999 154.735C352.854 154.921 352.73 154.999 352.626 155.011C352.529 155.023 352.403 154.982 352.237 154.813C352.071 154.643 351.886 154.363 351.68 153.948C350.143 150.852 349.132 148.137 348.335 145.803C348.109 145.14 347.899 144.507 347.7 143.903C347.199 142.388 346.761 141.062 346.275 139.938C345.594 138.362 344.809 137.154 343.599 136.345C342.389 135.537 340.775 135.14 338.464 135.14C331.844 135.14 328.873 139.72 326.65 143.147C326.514 143.357 326.38 143.563 326.249 143.763C325.678 144.633 325.151 145.391 324.612 145.945C324.072 146.498 323.536 146.83 322.949 146.879C322.363 146.927 321.69 146.695 320.869 146.039C320.048 145.383 319.096 144.315 317.957 142.721C314.009 137.194 309.575 134.384 305.233 133.18C300.894 131.976 296.66 132.38 293.113 133.26C286.964 134.785 283.328 138.71 280.451 141.816C279.963 142.343 279.496 142.847 279.043 143.311C277.471 144.921 276.084 146.031 274.516 146.1C272.954 146.168 271.151 145.202 268.746 142.479C265.341 138.623 261.904 136.359 258.256 135.062C254.611 133.765 250.765 133.436 246.55 133.436C243.11 133.436 241.06 134.461 239.333 135.479C239.141 135.593 238.953 135.706 238.768 135.817C237.291 136.705 236.002 137.48 234.115 137.48C233.223 137.48 232.327 137.176 231.371 136.707C230.69 136.372 229.989 135.959 229.243 135.52C228.94 135.341 228.63 135.158 228.31 134.975C226.108 133.708 223.52 132.428 220.172 132.428C220.172 132.428 220.172 132.428 220.172 132.428L72.4494 132.124V131.437L220.171 131.741Z" fill="url(#paint1_linear_2_533)" fill-opacity="0.5" stroke="url(#paint2_linear_2_533)" stroke-width="0.304582"/>
<path opacity="0.5" d="M471.796 130.628C478.602 130.628 479.883 126.706 484.23 126.706C487.935 126.706 492.16 131.418 514.901 131.658V132.62C494.043 132.359 487.935 137.466 484.23 137.466C479.883 137.466 478.602 133.545 471.796 133.545C463.378 133.545 456.493 134.818 449.713 142.264C440.071 152.854 440.248 133.32 425.196 133.369C402.501 133.444 400.184 152.739 395.693 152.739C392.292 152.739 392.185 134.416 383.898 136.194C375.465 138.003 372.541 181.319 369.747 174.284C365.014 162.368 363.578 134.992 354.397 134.992C340.533 134.992 342.904 154.686 333.766 142.282C325.907 131.614 316.146 131.467 309.083 133.165C294.803 136.6 294.208 152.65 284.566 142.06C277.786 134.614 270.901 133.341 262.483 133.341C253.746 133.341 252.657 136.002 248.31 136.008C241.869 136.017 228.238 132.965 202.85 132.415H64.5544C64.2888 132.415 64.0735 132.2 64.0735 131.934C64.0735 131.669 64.2888 131.454 64.5544 131.454H202.85C225.921 131.454 242.014 127.655 248.31 127.756C252.656 127.826 252.732 130.424 262.483 130.424C270.901 130.424 277.786 129.15 284.566 121.704C294.208 111.114 294.803 127.164 309.083 130.599C316.146 132.298 325.907 132.15 333.766 121.482C342.904 109.078 340.533 128.772 354.397 128.772C363.578 128.772 365.064 102.038 369.747 90.4452C372.362 83.9706 376.484 126.506 384.58 127.462C393.306 128.493 392.65 110.305 395.838 110.305C400.908 110.305 399.749 130.43 425.196 130.803C440.245 131.023 440.071 111.318 449.713 121.908C456.493 129.354 463.378 130.628 471.796 130.628Z" fill="#D9D9D9"/>
<g style="mix-blend-mode:color-dodge" filter="url(#filter1_f_2_533)">
<circle cx="375.587" cy="130.234" r="47.2102" fill="#163293"/>
</g>
<g style="mix-blend-mode:color-dodge" filter="url(#filter2_f_2_533)">
<circle cx="437.722" cy="135.108" r="47.2102" fill="#187121"/>
</g>
<g style="mix-blend-mode:color-dodge" filter="url(#filter3_f_2_533)">
<circle cx="520.873" cy="135.108" r="47.2102" fill="#6C2FA9"/>
</g>
<g style="mix-blend-mode:color-dodge" filter="url(#filter4_f_2_533)">
<circle cx="314.671" cy="135.108" r="47.2102" fill="#832F1C"/>
</g>
<g style="mix-blend-mode:color-dodge" filter="url(#filter5_f_2_533)">
<ellipse cx="147.76" cy="132.671" rx="106.908" ry="8.5283" fill="#227C6C"/>
</g>
<g opacity="0.1">
<g style="mix-blend-mode:color-dodge" filter="url(#filter6_f_2_533)">
<circle cx="375.587" cy="130.234" r="47.2102" fill="#163293"/>
</g>
<g style="mix-blend-mode:color-dodge" filter="url(#filter7_f_2_533)">
<circle cx="437.722" cy="135.108" r="47.2102" fill="#187121"/>
</g>
<g style="mix-blend-mode:color-dodge" filter="url(#filter8_f_2_533)">
<circle cx="520.873" cy="135.108" r="47.2102" fill="#6C2FA9"/>
</g>
<g style="mix-blend-mode:color-dodge" filter="url(#filter9_f_2_533)">
<circle cx="314.671" cy="135.108" r="47.2102" fill="#832F1C"/>
</g>
<g style="mix-blend-mode:color-dodge" filter="url(#filter10_f_2_533)">
<ellipse cx="147.76" cy="132.671" rx="106.908" ry="8.5283" fill="#227C6C"/>
</g>
</g>
</g>
</g>
<path d="M541.679 125.806C543.167 125.806 544.343 126.379 545.207 127.525C546.077 128.665 546.512 130.33 546.512 132.52C546.512 134.698 546.08 136.357 545.216 137.497C544.358 138.631 543.176 139.198 541.67 139.198C540.164 139.198 538.979 138.631 538.115 137.497C537.257 136.363 536.828 134.71 536.828 132.538C536.828 131.074 537.026 129.844 537.422 128.848C537.818 127.846 538.379 127.09 539.105 126.58C539.831 126.064 540.689 125.806 541.679 125.806ZM541.679 137.371C542.525 137.371 543.155 136.996 543.569 136.246C543.983 135.496 544.19 134.257 544.19 132.529C544.19 130.765 543.98 129.499 543.56 128.731C543.14 127.963 542.51 127.579 541.67 127.579C540.83 127.579 540.194 127.966 539.762 128.74C539.336 129.514 539.123 130.777 539.123 132.529C539.123 134.251 539.336 135.49 539.762 136.246C540.194 136.996 540.833 137.371 541.679 137.371ZM552.875 125.806C554.363 125.806 555.539 126.379 556.403 127.525C557.273 128.665 557.708 130.33 557.708 132.52C557.708 134.698 557.276 136.357 556.412 137.497C555.554 138.631 554.372 139.198 552.866 139.198C551.36 139.198 550.175 138.631 549.311 137.497C548.453 136.363 548.024 134.71 548.024 132.538C548.024 131.074 548.222 129.844 548.618 128.848C549.014 127.846 549.575 127.09 550.301 126.58C551.027 126.064 551.885 125.806 552.875 125.806ZM552.875 137.371C553.721 137.371 554.351 136.996 554.765 136.246C555.179 135.496 555.386 134.257 555.386 132.529C555.386 130.765 555.176 129.499 554.756 128.731C554.336 127.963 553.706 127.579 552.866 127.579C552.026 127.579 551.39 127.966 550.958 128.74C550.532 129.514 550.319 130.777 550.319 132.529C550.319 134.251 550.532 135.49 550.958 136.246C551.39 136.996 552.029 137.371 552.875 137.371ZM561.891 129.982V132.484H559.416V129.982H561.891ZM561.891 136.462V138.946H559.416V136.462H561.891ZM569.615 125.986H571.793V134.05H573.872V135.913H571.793V139H569.669L569.678 135.913H563.621V134.05L569.615 125.986ZM565.673 134.05H569.66V128.704L565.673 134.05ZM576.308 125.986H584.399L584.318 127.813H578.09L577.793 131.431C578.255 131.107 578.72 130.873 579.188 130.729C579.656 130.585 580.172 130.513 580.736 130.513C581.564 130.513 582.317 130.675 582.995 130.999C583.673 131.323 584.213 131.8 584.615 132.43C585.017 133.06 585.218 133.831 585.218 134.743C585.218 135.655 585.014 136.444 584.606 137.11C584.204 137.776 583.634 138.292 582.896 138.658C582.164 139.018 581.297 139.198 580.295 139.198C579.467 139.198 578.696 139.063 577.982 138.793C577.274 138.517 576.662 138.139 576.146 137.659C575.636 137.179 575.255 136.63 575.003 136.012L576.776 135.076C576.998 135.52 577.262 135.919 577.568 136.273C577.88 136.627 578.243 136.906 578.657 137.11C579.077 137.308 579.557 137.407 580.097 137.407C580.943 137.407 581.621 137.173 582.131 136.705C582.647 136.231 582.905 135.601 582.905 134.815C582.905 134.329 582.785 133.897 582.545 133.519C582.311 133.141 581.99 132.847 581.582 132.637C581.18 132.421 580.721 132.313 580.205 132.313C579.899 132.313 579.611 132.34 579.341 132.394C579.077 132.448 578.81 132.55 578.54 132.7C578.27 132.844 577.979 133.063 577.667 133.357C577.607 133.387 577.562 133.402 577.532 133.402C577.508 133.396 577.463 133.378 577.397 133.348L575.714 132.664L576.308 125.986Z" fill="white"/>
<path opacity="0.25" d="M77.12 225V214.682H83.126L84.68 216.236V219.652L83.266 221.066L85.016 225H83.028L81.404 221.206H78.87V225H77.12ZM78.87 219.666H82.314L82.93 219.05V216.838L82.314 216.222H78.87V219.666ZM87.9923 225L86.4383 223.446V219.246L87.9923 217.678H91.3523L92.9063 219.246V221.962H88.1323V222.998L88.7483 223.614H92.7803V225H87.9923ZM88.1323 220.66H91.2123V219.61L90.5963 218.994H88.7483L88.1323 219.61V220.66ZM94.9195 225V223.614H98.7555L99.3155 223.04V222.564L98.6575 221.906H95.9415L94.5135 220.506V219.092L95.9135 217.678H100.225V219.064H96.7535L96.2075 219.61V219.932L96.8375 220.562H99.5815L101.009 221.962V223.6L99.6095 225H94.9195ZM104.207 225L102.653 223.446V217.678H104.347V223.04L104.935 223.684H106.349L107.833 222.228V217.678H109.527V225H107.833V223.95L106.769 225H104.207ZM111.581 225V214.682H113.275V225H111.581ZM116.81 225L115.396 223.614V218.994H114.808V217.678H115.438L115.886 215.9H117.09V217.678H118.364V218.994H117.09V223.012L117.664 223.614H118.7V225H116.81ZM123.334 219.428V217.678H125.028V219.428H123.334ZM123.334 225V223.25H125.028V225H123.334Z" fill="white"/>
<path d="M131.196 225L134.682 214.682H136.656L140.142 225H138.812L137.93 222.312H133.408L132.54 225H131.196ZM133.786 221.192H137.566L135.83 215.886H135.508L133.786 221.192ZM142.746 225L141.276 223.53V219.148L142.746 217.678H146.092L147.38 218.952V220.114H146.148V219.358L145.448 218.658H143.278L142.508 219.428V223.194L143.278 223.978H147.31V225H142.746ZM150.524 225L149.054 223.53V219.148L150.524 217.678H153.87L155.158 218.952V220.114H153.926V219.358L153.226 218.658H151.056L150.286 219.428V223.194L151.056 223.978H155.088V225H150.524ZM158.387 225L156.931 223.53V217.678H158.163L158.149 223.236L158.905 224.02H160.725L162.167 222.578V217.678H163.399V225H162.167V223.866L161.047 225H158.387ZM165.64 225V217.678H166.872V218.994L168.146 217.678H170.022V218.91H168.202L166.872 220.282V225H165.64ZM171.769 225L170.313 223.53V221.864L171.769 220.394H175.493V219.484L174.737 218.714H171.265V217.678H175.269L176.725 219.148V225H175.493V223.866L174.359 225H171.769ZM172.315 224.02H174.051L175.493 222.592V221.36L172.315 221.374L171.545 222.13V223.25L172.315 224.02ZM180.216 225L178.746 223.53V219.148L180.216 217.678H183.562L184.85 218.952V220.114H183.618V219.358L182.918 218.658H180.748L179.978 219.428V223.194L180.748 223.978H184.78V225H180.216ZM187.705 227.618L189.021 224.496H188.503L185.493 217.678H186.851L189.203 223.278H189.525L191.695 217.678H193.039L188.951 227.618H187.705ZM198.725 225L197.311 223.572L198.137 222.746L199.271 223.866H202.617L203.373 223.096V220.268L202.519 221.122H198.781L197.325 219.652V216.152L198.781 214.682H203.191L204.647 216.152V223.53L203.191 225H198.725ZM199.369 219.988H202.421L203.373 218.994V216.586L202.617 215.816H199.369L198.599 216.586V219.218L199.369 219.988ZM207.992 225L206.522 223.53V220.492L207.53 219.484L206.858 218.784V216.152L208.328 214.682H212.29L213.76 216.152V218.784L213.088 219.484L214.096 220.492V223.53L212.626 225H207.992ZM208.678 218.994H211.94L212.486 218.406V216.586L211.73 215.802L208.902 215.816L208.132 216.586V218.406L208.678 218.994ZM208.566 223.866H212.052L212.822 223.096V220.898L212.052 220.114H208.58L207.796 220.898V223.096L208.566 223.866ZM216.865 225.28L216.137 224.594L225.279 214.402L225.993 215.088L216.865 225.28ZM217.355 219.414L215.885 217.93V216.166L217.355 214.682H219.371L220.841 216.166V217.93L219.371 219.414H217.355ZM217.929 218.392H218.797L219.609 217.58V216.516L218.797 215.704H217.929L217.117 216.516V217.58L217.929 218.392ZM222.759 225L221.303 223.516V221.752L222.759 220.268H224.789L226.245 221.752V223.516L224.789 225H222.759ZM223.333 223.978H224.215L225.013 223.166V222.102L224.215 221.29H223.333L222.535 222.102V223.166L223.333 223.978Z" fill="white"/>
<g opacity="0.25">
<path d="M528.78 221.147H527.024C523.988 221.147 521.352 222.868 520.028 225.392C520.01 225.156 520 224.917 520 224.676C520 219.803 523.931 215.853 528.78 215.853V211L538 218.5L528.78 226V221.147ZM527.024 219.382H530.537V222.301L535.209 218.5L530.537 214.699V217.618H528.78C526.655 217.618 524.75 218.566 523.462 220.065C524.574 219.622 525.778 219.382 527.024 219.382Z" fill="white"/>
</g>
<path opacity="0.25" d="M547.12 225V223.404L552.244 223.39L552.86 222.774L552.846 221.038L552.244 220.422H548.324L546.77 218.868V216.236L548.324 214.682H554.036V216.278L549.15 216.292L548.52 216.894L548.534 218.266L549.15 218.896L553.056 218.882L554.61 220.436V223.446L553.056 225H547.12ZM556.387 225V214.682H558.081V218.756L559.159 217.678H561.777L563.331 219.246V225H561.637V219.638L561.049 218.994H559.579L558.081 220.478V225H556.387ZM566.238 225L564.684 223.446V221.864L566.238 220.296H569.78V219.68L569.164 219.064H565.65V217.678H569.92L571.474 219.246V225H569.78V223.936L568.702 225H566.238ZM566.994 223.698L568.31 223.684L569.78 222.214V221.612H566.994L566.378 222.228V223.068L566.994 223.698ZM573.461 225V217.678H575.155V218.98L576.471 217.678H578.123V219.372H576.485L575.155 220.702V225H573.461ZM580.534 225L578.98 223.446V219.246L580.534 217.678H583.894L585.448 219.246V221.962H580.674V222.998L581.29 223.614H585.322V225H580.534ZM580.674 220.66H583.754V219.61L583.138 218.994H581.29L580.674 219.61V220.66Z" fill="white"/>
<rect x="36.5" y="32.5" width="590" height="253" stroke="white" stroke-opacity="0.15" shape-rendering="crispEdges"/>
</g>
<defs>
<filter id="filter0_d_2_533" x="0" y="0" width="663" height="326" filterUnits="userSpaceOnUse" color-interpolation-filters="sRGB">
<feFlood flood-opacity="0" result="BackgroundImageFix"/>
<feColorMatrix in="SourceAlpha" type="matrix" values="0 0 0 0 0 0 0 0 0 0 0 0 0 0 0 0 0 0 127 0" result="hardAlpha"/>
<feOffset dy="4"/>
<feGaussianBlur stdDeviation="18"/>
<feComposite in2="hardAlpha" operator="out"/>
<feColorMatrix type="matrix" values="0 0 0 0 0.0235294 0 0 0 0 0.0352941 0 0 0 0 0.0627451 0 0 0 0.4 0"/>
<feBlend mode="normal" in2="BackgroundImageFix" result="effect1_dropShadow_2_533"/>
<feBlend mode="normal" in="SourceGraphic" in2="effect1_dropShadow_2_533" result="shape"/>
</filter>
<filter id="filter1_f_2_533" x="278.121" y="32.7681" width="194.933" height="194.933" filterUnits="userSpaceOnUse" color-interpolation-filters="sRGB">
<feFlood flood-opacity="0" result="BackgroundImageFix"/>
<feBlend mode="normal" in="SourceGraphic" in2="BackgroundImageFix" result="shape"/>
<feGaussianBlur stdDeviation="25.128" result="effect1_foregroundBlur_2_533"/>
</filter>
<filter id="filter2_f_2_533" x="340.256" y="37.6414" width="194.933" height="194.933" filterUnits="userSpaceOnUse" color-interpolation-filters="sRGB">
<feFlood flood-opacity="0" result="BackgroundImageFix"/>
<feBlend mode="normal" in="SourceGraphic" in2="BackgroundImageFix" result="shape"/>
<feGaussianBlur stdDeviation="25.128" result="effect1_foregroundBlur_2_533"/>
</filter>
<filter id="filter3_f_2_533" x="423.407" y="37.6414" width="194.933" height="194.933" filterUnits="userSpaceOnUse" color-interpolation-filters="sRGB">
<feFlood flood-opacity="0" result="BackgroundImageFix"/>
<feBlend mode="normal" in="SourceGraphic" in2="BackgroundImageFix" result="shape"/>
<feGaussianBlur stdDeviation="25.128" result="effect1_foregroundBlur_2_533"/>
</filter>
<filter id="filter4_f_2_533" x="217.205" y="37.6414" width="194.933" height="194.933" filterUnits="userSpaceOnUse" color-interpolation-filters="sRGB">
<feFlood flood-opacity="0" result="BackgroundImageFix"/>
<feBlend mode="normal" in="SourceGraphic" in2="BackgroundImageFix" result="shape"/>
<feGaussianBlur stdDeviation="25.128" result="effect1_foregroundBlur_2_533"/>
</filter>
<filter id="filter5_f_2_533" x="22.272" y="105.563" width="250.976" height="54.2156" filterUnits="userSpaceOnUse" color-interpolation-filters="sRGB">
<feFlood flood-opacity="0" result="BackgroundImageFix"/>
<feBlend mode="normal" in="SourceGraphic" in2="BackgroundImageFix" result="shape"/>
<feGaussianBlur stdDeviation="9.28976" result="effect1_foregroundBlur_2_533"/>
</filter>
<filter id="filter6_f_2_533" x="278.121" y="32.7681" width="194.933" height="194.933" filterUnits="userSpaceOnUse" color-interpolation-filters="sRGB">
<feFlood flood-opacity="0" result="BackgroundImageFix"/>
<feBlend mode="normal" in="SourceGraphic" in2="BackgroundImageFix" result="shape"/>
<feGaussianBlur stdDeviation="25.128" result="effect1_foregroundBlur_2_533"/>
</filter>
<filter id="filter7_f_2_533" x="340.256" y="37.6414" width="194.933" height="194.933" filterUnits="userSpaceOnUse" color-interpolation-filters="sRGB">
<feFlood flood-opacity="0" result="BackgroundImageFix"/>
<feBlend mode="normal" in="SourceGraphic" in2="BackgroundImageFix" result="shape"/>
<feGaussianBlur stdDeviation="25.128" result="effect1_foregroundBlur_2_533"/>
</filter>
<filter id="filter8_f_2_533" x="423.407" y="37.6414" width="194.933" height="194.933" filterUnits="userSpaceOnUse" color-interpolation-filters="sRGB">
<feFlood flood-opacity="0" result="BackgroundImageFix"/>
<feBlend mode="normal" in="SourceGraphic" in2="BackgroundImageFix" result="shape"/>
<feGaussianBlur stdDeviation="25.128" result="effect1_foregroundBlur_2_533"/>
</filter>
<filter id="filter9_f_2_533" x="217.205" y="37.6414" width="194.933" height="194.933" filterUnits="userSpaceOnUse" color-interpolation-filters="sRGB">
<feFlood flood-opacity="0" result="BackgroundImageFix"/>
<feBlend mode="normal" in="SourceGraphic" in2="BackgroundImageFix" result="shape"/>
<feGaussianBlur stdDeviation="25.128" result="effect1_foregroundBlur_2_533"/>
</filter>
<filter id="filter10_f_2_533" x="22.272" y="105.563" width="250.976" height="54.2156" filterUnits="userSpaceOnUse" color-interpolation-filters="sRGB">
<feFlood flood-opacity="0" result="BackgroundImageFix"/>
<feBlend mode="normal" in="SourceGraphic" in2="BackgroundImageFix" result="shape"/>
<feGaussianBlur stdDeviation="9.28976" result="effect1_foregroundBlur_2_533"/>
</filter>
<linearGradient id="paint0_linear_2_533" x1="331.5" y1="32" x2="331.5" y2="286" gradientUnits="userSpaceOnUse">
<stop stop-color="#15181E"/>
<stop offset="1" stop-color="#060910"/>
</linearGradient>
<linearGradient id="paint1_linear_2_533" x1="293.996" y1="104.529" x2="293.996" y2="167.547" gradientUnits="userSpaceOnUse">
<stop stop-color="white"/>
<stop offset="1" stop-color="white" stop-opacity="0"/>
</linearGradient>
<linearGradient id="paint2_linear_2_533" x1="293.996" y1="104.529" x2="293.996" y2="167.547" gradientUnits="userSpaceOnUse">
<stop stop-color="white"/>
<stop offset="1" stop-color="white" stop-opacity="0"/>
</linearGradient>
<clipPath id="clip0_2_533">
<rect width="388" height="89" fill="white" transform="translate(136 88)"/>
</clipPath>
</defs>
</svg>
